<svg width="49" height="48" viewBox="0 0 49 48" fill="none" xmlns="http://www.w3.org/2000/svg">
<rect x="0.5" width="48" height="48" rx="24" fill="#EFF6FF"/>
<g clip-path="url(#clip0_2048_4003)">
<path d="M30.9955 21.405L32.7945 20.3665L31.7945 18.634L29.9925 19.6745C29.6505 19.241 29.2595 18.85 28.826 18.508L29.8665 16.706L28.134 15.706L27.0955 17.505C26.59 17.302 26.055 17.16 25.5 17.08V15H23.5V17.08C22.945 17.16 22.41 17.302 21.905 17.5045L20.8665 15.7055L19.134 16.7055L20.1745 18.5075C19.741 18.8495 19.35 19.2405 19.008 19.674L17.206 18.6335L16.206 20.366L18.005 21.4045C17.802 21.91 17.66 22.445 17.58 23H15.5V25H17.58C17.66 25.555 17.802 26.09 18.0045 26.595L16.2055 27.6335L17.2055 29.366L19.0075 28.3255C19.3495 28.759 19.7405 29.15 20.174 29.492L19.1335 31.294L20.866 32.294L21.9045 30.495C22.41 30.6975 22.9445 30.8395 23.4995 30.9195V33H25.4995V30.92C26.0545 30.84 26.5895 30.698 27.0945 30.4955L28.133 32.2945L29.8655 31.2945L28.825 29.4925C29.2585 29.1505 29.6495 28.7595 29.9915 28.326L31.7935 29.3665L32.7935 27.634L30.9945 26.5955C31.197 26.09 31.339 25.5555 31.419 25.0005H33.5V23.0005H31.42C31.34 22.445 31.198 21.91 30.9955 21.405ZM21.5 25.5C21.5 24.673 22.173 24 23 24C23.827 24 24.5 24.673 24.5 25.5C24.5 26.327 23.827 27 23 27C22.173 27 21.5 26.327 21.5 25.5ZM27.5 22.5C27.5 23.327 26.827 24 26 24C25.173 24 24.5 23.327 24.5 22.5C24.5 21.673 25.173 21 26 21C26.827 21 27.5 21.673 27.5 22.5Z" fill="#3B82F6"/>
</g>
<defs>
<clipPath id="clip0_2048_4003">
<rect width="24" height="24" fill="white" transform="translate(12.5 12)"/>
</clipPath>
</defs>
</svg>
