<svg width="49" height="48" viewBox="0 0 49 48" fill="none" xmlns="http://www.w3.org/2000/svg">
<rect x="0.333252" width="48" height="48" rx="24" fill="#EFF6FF"/>
<path d="M21.3333 15H16.3333C15.781 15 15.3333 15.4477 15.3333 16V23C15.3333 23.5523 15.781 24 16.3333 24H21.3333C21.8855 24 22.3333 23.5523 22.3333 23V16C22.3333 15.4477 21.8855 15 21.3333 15Z" stroke="#3B82F6" stroke-width="2" stroke-linecap="round" stroke-linejoin="round"/>
<path d="M32.3333 15H27.3333C26.781 15 26.3333 15.4477 26.3333 16V19C26.3333 19.5523 26.781 20 27.3333 20H32.3333C32.8855 20 33.3333 19.5523 33.3333 19V16C33.3333 15.4477 32.8855 15 32.3333 15Z" stroke="#3B82F6" stroke-width="2" stroke-linecap="round" stroke-linejoin="round"/>
<path d="M32.3333 24H27.3333C26.781 24 26.3333 24.4477 26.3333 25V32C26.3333 32.5523 26.781 33 27.3333 33H32.3333C32.8855 33 33.3333 32.5523 33.3333 32V25C33.3333 24.4477 32.8855 24 32.3333 24Z" stroke="#3B82F6" stroke-width="2" stroke-linecap="round" stroke-linejoin="round"/>
<path d="M21.3333 28H16.3333C15.781 28 15.3333 28.4477 15.3333 29V32C15.3333 32.5523 15.781 33 16.3333 33H21.3333C21.8855 33 22.3333 32.5523 22.3333 32V29C22.3333 28.4477 21.8855 28 21.3333 28Z" stroke="#3B82F6" stroke-width="2" stroke-linecap="round" stroke-linejoin="round"/>
</svg>
