<svg width="24" height="24" viewBox="0 0 24 24" fill="none" xmlns="http://www.w3.org/2000/svg">
<path fill-rule="evenodd" clip-rule="evenodd" d="M7.56 15.39C6.99421 15.045 6.32616 14.9071 5.67 15H4V21H5.33V18.71H5.9C6.49049 18.7707 7.08384 18.6259 7.58 18.3C8.00114 17.9388 8.23334 17.4043 8.21 16.85C8.24118 16.287 7.99921 15.7435 7.56 15.39ZM6.49 17.58C6.23879 17.6906 5.9626 17.732 5.69 17.7H5.3V16H5.69C5.97319 15.9699 6.2589 16.0256 6.51 16.16C6.74386 16.3229 6.87638 16.5955 6.86 16.88C6.8903 17.1668 6.74407 17.4435 6.49 17.58ZM11.07 15H9.41V21H11C11.8103 21.0793 12.6263 20.923 13.35 20.55C14.1463 19.9565 14.5717 18.9879 14.47 18C14.5296 17.1536 14.228 16.3216 13.64 15.71C12.9136 15.1375 11.9873 14.8816 11.07 15ZM12.39 19.64C11.9734 19.8742 11.4964 19.9786 11.02 19.94H10.76V16.06H11C11.84 16.06 12.17 16.14 12.5 16.44C12.9005 16.857 13.1073 17.4231 13.07 18C13.1214 18.6244 12.8682 19.2352 12.39 19.64ZM15.93 21H17.28V18.49H20V17.43H17.28V16.06H20V15H15.93V21ZM15 2H4V13H6V11V9.95V4H14.17L18 7.83V9.95V11V13H20V7L15 2Z" fill="white"/>
</svg>
