<svg width="48" height="48" viewBox="0 0 48 48" fill="none" xmlns="http://www.w3.org/2000/svg">
<rect width="48" height="48" rx="24" fill="#EFF6FF"/>
<g clip-path="url(#clip0_2048_3996)">
<path d="M24.779 12.4082C24.6026 12.1527 24.3116 12 24.0011 12C23.6905 12 23.3997 12.1524 23.2233 12.4079C22.4517 13.5249 15.6843 23.444 15.6843 27.6858C15.6843 32.2704 19.4152 35.9999 24.0011 35.9999C28.5858 35.9999 32.3157 32.2704 32.3157 27.6858C32.3156 23.444 25.5504 13.5253 24.779 12.4082ZM24.001 34.1092C20.4578 34.1092 17.575 31.2279 17.575 27.686C17.575 24.9363 21.6801 18.1507 24.0009 14.6368C26.3211 18.1502 30.4247 24.9345 30.4247 27.686C30.4247 31.2278 27.5431 34.1092 24.001 34.1092Z" fill="#3B82F6"/>
</g>
<defs>
<clipPath id="clip0_2048_3996">
<rect width="24" height="24" fill="white" transform="translate(12 12)"/>
</clipPath>
</defs>
</svg>
