<svg width="21" height="20" viewBox="0 0 21 20" fill="none" xmlns="http://www.w3.org/2000/svg">
<path d="M4.12435 1.9165C4.12732 1.96886 4.14668 2.01896 4.17969 2.05971C4.21271 2.10047 4.2577 2.1298 4.30831 2.14357C4.35891 2.15734 4.41257 2.15485 4.46168 2.13644C4.51079 2.11804 4.55287 2.08466 4.58196 2.04102C4.61105 1.99738 4.62568 1.9457 4.62378 1.89329C4.62188 1.84088 4.60355 1.79039 4.57137 1.74897C4.5392 1.70756 4.49481 1.67731 4.4445 1.66251C4.39419 1.6477 4.34049 1.6491 4.29102 1.6665H3.45768C3.01565 1.6665 2.59173 1.84209 2.27917 2.15466C1.96661 2.46722 1.79102 2.89114 1.79102 3.33317V7.49983C1.79102 8.82592 2.3178 10.0977 3.25548 11.0354C4.19316 11.973 5.46493 12.4998 6.79102 12.4998C8.1171 12.4998 9.38887 11.973 10.3265 11.0354C11.2642 10.0977 11.791 8.82592 11.791 7.49983V3.33317C11.791 2.89114 11.6154 2.46722 11.3029 2.15466C10.9903 1.84209 10.5664 1.6665 10.1243 1.6665H9.29102C9.2746 1.68292 9.26158 1.7024 9.2527 1.72385C9.24381 1.7453 9.23924 1.76829 9.23924 1.7915C9.23924 1.81471 9.24381 1.8377 9.2527 1.85915C9.26158 1.8806 9.2746 1.90008 9.29102 1.9165C9.30743 1.93292 9.32692 1.94594 9.34837 1.95482C9.36981 1.9637 9.3928 1.96828 9.41602 1.96828C9.43923 1.96828 9.46222 1.9637 9.48366 1.95482C9.50511 1.94594 9.5246 1.93292 9.54102 1.9165" stroke="#3B82F6" stroke-width="1.66667" stroke-linecap="round" stroke-linejoin="round"/>
<path d="M6.79102 12.5V13.3333C6.79102 14.6594 7.3178 15.9312 8.25548 16.8689C9.19316 17.8065 10.4649 18.3333 11.791 18.3333C13.1171 18.3333 14.3889 17.8065 15.3265 16.8689C16.2642 15.9312 16.791 14.6594 16.791 13.3333V10" stroke="#3B82F6" stroke-width="1.66667" stroke-linecap="round" stroke-linejoin="round"/>
<path d="M16.7907 10.0001C17.7112 10.0001 18.4574 9.25389 18.4574 8.33341C18.4574 7.41294 17.7112 6.66675 16.7907 6.66675C15.8702 6.66675 15.124 7.41294 15.124 8.33341C15.124 9.25389 15.8702 10.0001 16.7907 10.0001Z" stroke="#3B82F6" stroke-width="1.66667" stroke-linecap="round" stroke-linejoin="round"/>
</svg>
