<svg width="49" height="48" viewBox="0 0 49 48" fill="none" xmlns="http://www.w3.org/2000/svg">
<rect x="0.5" width="48" height="48" rx="24" fill="#EFF6FF"/>
<g clip-path="url(#clip0_2048_4017)">
<path d="M24.5065 12.0049C17.9011 12.0049 12.5249 17.3817 12.5249 23.9859C12.5249 30.5942 17.9011 35.9681 24.5065 35.9681C31.1118 35.9681 36.4869 30.5942 36.4869 23.9859C36.4863 17.3817 31.1118 12.0049 24.5065 12.0049ZM24.5065 34.8589C18.5124 34.8589 13.6316 29.9805 13.6316 23.9859C13.6316 17.993 18.5124 13.1128 24.5065 13.1128C30.4988 13.1128 35.3784 17.9924 35.3784 23.9859C35.3784 29.9799 30.4988 34.8589 24.5065 34.8589Z" fill="#3B82F6"/>
<path d="M18.3044 23.1966H20.6046V20.8638H18.3044V23.1966Z" fill="#3B82F6"/>
<path d="M24.5172 14.5596C19.3162 14.5596 15.0859 18.7928 15.0859 23.9915C15.0859 29.1913 19.3156 33.4204 24.5172 33.4204C29.7158 33.4204 33.9444 29.1913 33.9444 23.9915C33.9444 18.7928 29.7152 14.5596 24.5172 14.5596ZM17.4943 24.0146V20.0451H21.4358V24.0146H17.4943ZM21.5547 31.2717C21.298 31.2717 21.0439 31.2212 20.8068 31.1231C20.5698 31.0249 20.3543 30.881 20.1729 30.6996C19.9914 30.5181 19.8475 30.3027 19.7494 30.0656C19.6512 29.8285 19.6007 29.5744 19.6008 29.3178C19.6008 28.8 19.8065 28.3034 20.1726 27.9372C20.5388 27.5711 21.0354 27.3654 21.5532 27.3654C22.071 27.3654 22.5676 27.5711 22.9337 27.9372C23.2998 28.3034 23.5055 28.8 23.5055 29.3178C23.5058 29.5742 23.4555 29.8281 23.3576 30.0651C23.2597 30.3021 23.116 30.5174 22.9348 30.6988C22.7537 30.8803 22.5385 31.0243 22.3017 31.1225C22.0649 31.2208 21.8111 31.2715 21.5547 31.2717ZM23.9178 26.9315C23.3995 26.9315 22.9024 26.7256 22.5358 26.3593C22.1692 25.9929 21.9631 25.4959 21.9628 24.9776C21.9631 24.4592 22.1692 23.9621 22.5357 23.5955C22.9023 23.2289 23.3994 23.0229 23.9178 23.0225C24.9943 23.0225 25.8687 23.8982 25.8687 24.9776C25.8687 26.057 24.9937 26.9315 23.9178 26.9315ZM25.2865 19.5289C24.751 19.5131 24.2427 19.2893 23.8695 18.9049C23.4963 18.5206 23.2875 18.0059 23.2875 17.4702C23.2875 16.9344 23.4963 16.4197 23.8695 16.0354C24.2427 15.651 24.751 15.4272 25.2865 15.4115C25.5568 15.4113 25.8244 15.4644 26.074 15.5678C26.3237 15.6712 26.5505 15.8228 26.7416 16.0139C26.9326 16.205 27.084 16.432 27.1873 16.6817C27.2905 16.9314 27.3435 17.199 27.3432 17.4693C27.3435 18.0151 27.127 18.5387 26.7413 18.9249C26.3556 19.3112 25.8324 19.5284 25.2865 19.5289ZM28.6994 30.0105C28.3129 30.0107 27.935 29.8963 27.6136 29.6818C27.2921 29.4672 27.0415 29.1621 26.8934 28.8051C26.7454 28.4481 26.7065 28.0552 26.7818 27.6761C26.857 27.2971 27.043 26.9488 27.3162 26.6754C27.5894 26.4021 27.9376 26.2159 28.3166 26.1404C28.6956 26.0649 29.0886 26.1035 29.4457 26.2514C29.8027 26.3992 30.108 26.6496 30.3227 26.971C30.5375 27.2923 30.6521 27.6701 30.6521 28.0566C30.6519 28.5745 30.4462 29.0712 30.0801 29.4376C29.7139 29.8039 29.2173 30.01 28.6994 30.0105ZM29.1135 24.2695C28.5953 24.2688 28.0985 24.0626 27.7321 23.6961C27.3658 23.3295 27.1599 22.8326 27.1596 22.3144C27.1595 22.0578 27.21 21.8036 27.3081 21.5664C27.4063 21.3293 27.5502 21.1138 27.7316 20.9322C27.9131 20.7507 28.1285 20.6067 28.3656 20.5084C28.6027 20.4101 28.8568 20.3595 29.1135 20.3594C29.3743 20.3529 29.6337 20.3988 29.8765 20.4941C30.1193 20.5895 30.3406 20.7325 30.5274 20.9146C30.7141 21.0968 30.8625 21.3145 30.9638 21.5549C31.0651 21.7953 31.1173 22.0535 31.1173 22.3144C31.1173 22.5753 31.0651 22.8335 30.9638 23.0739C30.8625 23.3143 30.7141 23.532 30.5274 23.7142C30.3406 23.8964 30.1193 24.0394 29.8765 24.1347C29.6337 24.2301 29.3743 24.2759 29.1135 24.2695Z" fill="#3B82F6"/>
</g>
<defs>
<clipPath id="clip0_2048_4017">
<rect width="24" height="24" fill="white" transform="translate(12.5 12)"/>
</clipPath>
</defs>
</svg>
