<svg width="48" height="48" viewBox="0 0 48 48" fill="none" xmlns="http://www.w3.org/2000/svg">
<rect width="48" height="48" rx="24" fill="#EFF6FF"/>
<g clip-path="url(#clip0_2048_4010)">
<path d="M35.6697 18.96C35.2301 18.5193 34.5157 18.5203 34.0754 18.961L30.1355 22.8999C30.0138 22.6995 29.8795 22.4898 29.7356 22.2718L34.6891 17.3182C35.1295 16.8779 35.1274 16.1628 34.6884 15.7238C34.2481 15.2839 33.5345 15.2825 33.0941 15.7231L28.4719 20.3451C28.3375 20.1358 28.2021 19.9282 28.0653 19.725L32.8683 14.9219C33.3066 14.4833 33.3076 13.7679 32.8687 13.3286C32.4262 12.8865 31.713 12.889 31.2736 13.328L26.6652 17.9365C26.484 17.7557 26.3004 17.6023 26.1105 17.4645L29.329 14.2459C29.768 13.8067 29.7662 13.0912 29.3273 12.6526C28.8866 12.2115 28.1733 12.2119 27.734 12.6512C27.734 12.6512 22.1875 18.1865 22.0672 18.3114C21.2048 18.9902 21.3757 16.0428 20.4898 14.4945C19.5521 12.8545 18.001 13.7531 18.2641 16.0182C18.7041 19.8487 17.6549 24.5866 16.2487 25.9928L12 30.2416L17.4361 35.6777L21.3219 31.7923C22.6292 30.4853 24.8693 31.3558 28.3551 27.8703L35.6698 20.5553C36.1104 20.1147 36.1097 19.3993 35.6697 18.96ZM15.6529 31.6175C15.3329 31.9379 14.8137 31.9379 14.4933 31.6179C14.1729 31.2971 14.1729 30.778 14.4933 30.4576C14.8137 30.1375 15.3329 30.1379 15.6529 30.4576C15.9737 30.778 15.9737 31.2971 15.6529 31.6175ZM16.1551 29.2121C15.9698 29.3971 15.6694 29.3971 15.4837 29.2121C15.298 29.0261 15.298 28.7261 15.4837 28.54C15.6695 28.3546 15.9698 28.3546 16.1551 28.54C16.3405 28.7261 16.3405 29.0261 16.1551 29.2121ZM18.2697 33.1879C17.9995 33.4577 17.5627 33.4577 17.2929 33.1879C17.0232 32.9178 17.0232 32.4809 17.2929 32.2108C17.5627 31.9417 17.9999 31.9417 18.2697 32.2108C18.5391 32.481 18.5387 32.9178 18.2697 33.1879ZM18.639 30.9721C18.3689 31.2419 17.932 31.2419 17.6619 30.9725C17.3922 30.7024 17.3922 30.2652 17.6619 29.9957C17.932 29.7256 18.3689 29.7256 18.639 29.9957C18.9087 30.2652 18.9087 30.7024 18.639 30.9721ZM19.1095 28.1193C18.7497 28.4788 18.1663 28.4788 17.8068 28.1193C17.4473 27.7598 17.4473 27.1771 17.8068 26.8173C18.1663 26.4578 18.7497 26.4578 19.1095 26.8173C19.469 27.1771 19.469 27.7599 19.1095 28.1193ZM20.9476 30.2658C20.7626 30.4512 20.4619 30.4512 20.2762 30.2658C20.0905 30.0801 20.0909 29.7798 20.2762 29.5941C20.4619 29.4087 20.7623 29.409 20.9476 29.5941C21.133 29.7798 21.133 30.0802 20.9476 30.2658Z" fill="#3B82F6"/>
</g>
<defs>
<clipPath id="clip0_2048_4010">
<rect width="24" height="24" fill="white" transform="translate(12 12)"/>
</clipPath>
</defs>
</svg>
