<svg width="25" height="24" viewBox="0 0 25 24" fill="none" xmlns="http://www.w3.org/2000/svg">
<path d="M5.15034 2.2999C5.15391 2.36273 5.17714 2.42285 5.21676 2.47176C5.25637 2.52066 5.31037 2.55586 5.37109 2.57238C5.43182 2.58891 5.49621 2.58592 5.55514 2.56383C5.61407 2.54175 5.66457 2.50169 5.69948 2.44932C5.73439 2.39696 5.75194 2.33494 5.74966 2.27204C5.74738 2.20915 5.72538 2.14857 5.68677 2.09887C5.64816 2.04916 5.5949 2.01287 5.53452 1.9951C5.47415 1.97734 5.40971 1.97902 5.35034 1.9999H4.35034C3.81991 1.9999 3.3112 2.21061 2.93613 2.58568C2.56106 2.96076 2.35034 3.46946 2.35034 3.9999V8.9999C2.35034 10.5912 2.98248 12.1173 4.1077 13.2425C5.23292 14.3678 6.75904 14.9999 8.35034 14.9999C9.94164 14.9999 11.4678 14.3678 12.593 13.2425C13.7182 12.1173 14.3503 10.5912 14.3503 8.9999V3.9999C14.3503 3.46946 14.1396 2.96076 13.7646 2.58568C13.3895 2.21061 12.8808 1.9999 12.3503 1.9999H11.3503C11.3306 2.0196 11.315 2.04298 11.3044 2.06872C11.2937 2.09446 11.2882 2.12204 11.2882 2.1499C11.2882 2.17776 11.2937 2.20534 11.3044 2.23108C11.315 2.25681 11.3306 2.2802 11.3503 2.2999C11.37 2.3196 11.3934 2.33522 11.4192 2.34588C11.4449 2.35654 11.4725 2.36203 11.5003 2.36203C11.5282 2.36203 11.5558 2.35654 11.5815 2.34588C11.6073 2.33522 11.6306 2.3196 11.6503 2.2999" stroke="#60A5FA" stroke-width="2" stroke-linecap="round" stroke-linejoin="round"/>
<path d="M8.35034 15V16C8.35034 17.5913 8.98248 19.1174 10.1077 20.2426C11.2329 21.3679 12.759 22 14.3503 22C15.9416 22 17.4678 21.3679 18.593 20.2426C19.7182 19.1174 20.3503 17.5913 20.3503 16V12" stroke="#60A5FA" stroke-width="2" stroke-linecap="round" stroke-linejoin="round"/>
<path d="M20.3503 12C21.4549 12 22.3503 11.1046 22.3503 10C22.3503 8.89543 21.4549 8 20.3503 8C19.2458 8 18.3503 8.89543 18.3503 10C18.3503 11.1046 19.2458 12 20.3503 12Z" stroke="#60A5FA" stroke-width="2" stroke-linecap="round" stroke-linejoin="round"/>
</svg>
