<svg width="49" height="48" viewBox="0 0 49 48" fill="none" xmlns="http://www.w3.org/2000/svg">
<rect x="0.666504" width="48" height="48" rx="24" fill="#EFF6FF"/>
<path d="M31.6665 33V31C31.6665 29.9391 31.2451 28.9217 30.4949 28.1716C29.7448 27.4214 28.7274 27 27.6665 27H21.6665C20.6056 27 19.5882 27.4214 18.8381 28.1716C18.0879 28.9217 17.6665 29.9391 17.6665 31V33" stroke="#3B82F6" stroke-width="2" stroke-linecap="round" stroke-linejoin="round"/>
<path d="M24.6665 23C26.8756 23 28.6665 21.2091 28.6665 19C28.6665 16.7909 26.8756 15 24.6665 15C22.4574 15 20.6665 16.7909 20.6665 19C20.6665 21.2091 22.4574 23 24.6665 23Z" stroke="#3B82F6" stroke-width="2" stroke-linecap="round" stroke-linejoin="round"/>
</svg>
